<mxfile host="app.diagrams.net" agent="Mozilla/5.0 (Windows NT 10.0; Win64; x64) AppleWebKit/537.36 (KHTML, like Gecko) Chrome/132.0.0.0 Safari/537.36" version="26.0.11">
  <diagram id="R2lEEEUBdFMjLlhIrx00" name="Page-1">
    <mxGraphModel dx="1434" dy="772" grid="1" gridSize="10" guides="1" tooltips="1" connect="1" arrows="1" fold="1" page="1" pageScale="1" pageWidth="850" pageHeight="1100" math="0" shadow="0" extFonts="Permanent Marker^https://fonts.googleapis.com/css?family=Permanent+Marker">
      <root>
        <mxCell id="0" />
        <mxCell id="1" parent="0" />
        <mxCell id="SM0f7E3UZA-LuhCornrs-59" value="RESERVA" style="whiteSpace=wrap;html=1;align=center;" vertex="1" parent="1">
          <mxGeometry x="170" y="680" width="100" height="40" as="geometry" />
        </mxCell>
        <mxCell id="SM0f7E3UZA-LuhCornrs-60" value="USUARIO" style="whiteSpace=wrap;html=1;align=center;" vertex="1" parent="1">
          <mxGeometry x="582.5" y="680" width="100" height="40" as="geometry" />
        </mxCell>
        <mxCell id="SM0f7E3UZA-LuhCornrs-69" value="hace" style="html=1;whiteSpace=wrap;aspect=fixed;shape=isoRectangle;" vertex="1" parent="1">
          <mxGeometry x="346.25" y="673.75" width="87.5" height="52.5" as="geometry" />
        </mxCell>
        <mxCell id="SM0f7E3UZA-LuhCornrs-70" style="rounded=0;orthogonalLoop=1;jettySize=auto;html=1;entryX=1;entryY=0.5;entryDx=0;entryDy=0;exitX=-0.005;exitY=0.501;exitDx=0;exitDy=0;exitPerimeter=0;endArrow=none;startFill=0;" edge="1" parent="1" source="SM0f7E3UZA-LuhCornrs-69" target="SM0f7E3UZA-LuhCornrs-59">
          <mxGeometry relative="1" as="geometry">
            <mxPoint x="613" y="865" as="sourcePoint" />
            <mxPoint x="543" y="945" as="targetPoint" />
          </mxGeometry>
        </mxCell>
        <mxCell id="SM0f7E3UZA-LuhCornrs-71" style="rounded=0;orthogonalLoop=1;jettySize=auto;html=1;entryX=1;entryY=0.513;entryDx=0;entryDy=0;exitX=0;exitY=0.5;exitDx=0;exitDy=0;endArrow=none;startFill=0;entryPerimeter=0;" edge="1" parent="1" source="SM0f7E3UZA-LuhCornrs-60" target="SM0f7E3UZA-LuhCornrs-69">
          <mxGeometry relative="1" as="geometry">
            <mxPoint x="623" y="875" as="sourcePoint" />
            <mxPoint x="553" y="955" as="targetPoint" />
          </mxGeometry>
        </mxCell>
        <mxCell id="SM0f7E3UZA-LuhCornrs-75" value="(1,1)" style="text;html=1;align=center;verticalAlign=middle;resizable=0;points=[];autosize=1;strokeColor=none;fillColor=none;" vertex="1" parent="1">
          <mxGeometry x="532.5" y="673.75" width="50" height="30" as="geometry" />
        </mxCell>
        <mxCell id="SM0f7E3UZA-LuhCornrs-76" value="(0,n)" style="text;html=1;align=center;verticalAlign=middle;resizable=0;points=[];autosize=1;strokeColor=none;fillColor=none;" vertex="1" parent="1">
          <mxGeometry x="260" y="673.75" width="50" height="30" as="geometry" />
        </mxCell>
        <mxCell id="SM0f7E3UZA-LuhCornrs-77" value="(1,1)" style="text;html=1;align=center;verticalAlign=middle;resizable=0;points=[];autosize=1;strokeColor=none;fillColor=none;" vertex="1" parent="1">
          <mxGeometry x="546" y="712" width="50" height="30" as="geometry" />
        </mxCell>
        <mxCell id="SM0f7E3UZA-LuhCornrs-79" value="1:N" style="text;html=1;align=center;verticalAlign=middle;resizable=0;points=[];autosize=1;strokeColor=none;fillColor=none;" vertex="1" parent="1">
          <mxGeometry x="370" y="650" width="40" height="30" as="geometry" />
        </mxCell>
        <mxCell id="SM0f7E3UZA-LuhCornrs-89" style="rounded=0;orthogonalLoop=1;jettySize=auto;html=1;entryX=0;entryY=0.75;entryDx=0;entryDy=0;endArrow=none;startFill=0;" edge="1" parent="1" source="SM0f7E3UZA-LuhCornrs-90" target="SM0f7E3UZA-LuhCornrs-59">
          <mxGeometry relative="1" as="geometry" />
        </mxCell>
        <mxCell id="SM0f7E3UZA-LuhCornrs-90" value="&lt;b&gt;&lt;u&gt;idReserva&lt;/u&gt;&lt;/b&gt;" style="ellipse;whiteSpace=wrap;html=1;" vertex="1" parent="1">
          <mxGeometry x="80" y="712" width="70" height="28" as="geometry" />
        </mxCell>
        <mxCell id="SM0f7E3UZA-LuhCornrs-91" style="rounded=0;orthogonalLoop=1;jettySize=auto;html=1;entryX=0.25;entryY=1;entryDx=0;entryDy=0;endArrow=none;startFill=0;" edge="1" parent="1" source="SM0f7E3UZA-LuhCornrs-92" target="SM0f7E3UZA-LuhCornrs-59">
          <mxGeometry relative="1" as="geometry" />
        </mxCell>
        <mxCell id="SM0f7E3UZA-LuhCornrs-92" value="fecha" style="ellipse;whiteSpace=wrap;html=1;" vertex="1" parent="1">
          <mxGeometry x="150" y="730.75" width="50" height="25" as="geometry" />
        </mxCell>
        <mxCell id="SM0f7E3UZA-LuhCornrs-93" style="rounded=0;orthogonalLoop=1;jettySize=auto;html=1;entryX=0;entryY=0.5;entryDx=0;entryDy=0;endArrow=none;startFill=0;" edge="1" parent="1" source="SM0f7E3UZA-LuhCornrs-94" target="SM0f7E3UZA-LuhCornrs-59">
          <mxGeometry relative="1" as="geometry" />
        </mxCell>
        <mxCell id="SM0f7E3UZA-LuhCornrs-94" value="tramoHorario" style="ellipse;whiteSpace=wrap;html=1;" vertex="1" parent="1">
          <mxGeometry x="70" y="670" width="80" height="30" as="geometry" />
        </mxCell>
        <mxCell id="SM0f7E3UZA-LuhCornrs-95" style="rounded=0;orthogonalLoop=1;jettySize=auto;html=1;entryX=0.25;entryY=0;entryDx=0;entryDy=0;endArrow=none;startFill=0;" edge="1" parent="1" source="SM0f7E3UZA-LuhCornrs-96" target="SM0f7E3UZA-LuhCornrs-60">
          <mxGeometry relative="1" as="geometry" />
        </mxCell>
        <mxCell id="SM0f7E3UZA-LuhCornrs-96" value="&lt;u&gt;&lt;b&gt;idUsuario&lt;/b&gt;&lt;/u&gt;" style="ellipse;whiteSpace=wrap;html=1;" vertex="1" parent="1">
          <mxGeometry x="470" y="600" width="70" height="40" as="geometry" />
        </mxCell>
        <mxCell id="SM0f7E3UZA-LuhCornrs-97" style="rounded=0;orthogonalLoop=1;jettySize=auto;html=1;entryX=0.75;entryY=0;entryDx=0;entryDy=0;endArrow=none;startFill=0;" edge="1" parent="1" source="SM0f7E3UZA-LuhCornrs-98" target="SM0f7E3UZA-LuhCornrs-60">
          <mxGeometry relative="1" as="geometry" />
        </mxCell>
        <mxCell id="SM0f7E3UZA-LuhCornrs-98" value="contrasena" style="ellipse;whiteSpace=wrap;html=1;" vertex="1" parent="1">
          <mxGeometry x="602.5" y="555" width="80" height="30" as="geometry" />
        </mxCell>
        <mxCell id="SM0f7E3UZA-LuhCornrs-99" style="rounded=0;orthogonalLoop=1;jettySize=auto;html=1;entryX=1;entryY=0;entryDx=0;entryDy=0;endArrow=none;startFill=0;" edge="1" parent="1" source="SM0f7E3UZA-LuhCornrs-100" target="SM0f7E3UZA-LuhCornrs-60">
          <mxGeometry relative="1" as="geometry" />
        </mxCell>
        <mxCell id="SM0f7E3UZA-LuhCornrs-100" value="apellido1" style="ellipse;whiteSpace=wrap;html=1;" vertex="1" parent="1">
          <mxGeometry x="700" y="565" width="60" height="40" as="geometry" />
        </mxCell>
        <mxCell id="SM0f7E3UZA-LuhCornrs-101" style="rounded=0;orthogonalLoop=1;jettySize=auto;html=1;entryX=0.5;entryY=0;entryDx=0;entryDy=0;endArrow=none;startFill=0;" edge="1" parent="1" source="SM0f7E3UZA-LuhCornrs-102" target="SM0f7E3UZA-LuhCornrs-60">
          <mxGeometry relative="1" as="geometry" />
        </mxCell>
        <mxCell id="SM0f7E3UZA-LuhCornrs-102" value="nombre" style="ellipse;whiteSpace=wrap;html=1;" vertex="1" parent="1">
          <mxGeometry x="532.5" y="570" width="60" height="30" as="geometry" />
        </mxCell>
        <mxCell id="SM0f7E3UZA-LuhCornrs-104" style="rounded=0;orthogonalLoop=1;jettySize=auto;html=1;entryX=1;entryY=0.5;entryDx=0;entryDy=0;endArrow=none;startFill=0;" edge="1" parent="1" source="SM0f7E3UZA-LuhCornrs-105" target="SM0f7E3UZA-LuhCornrs-60">
          <mxGeometry relative="1" as="geometry" />
        </mxCell>
        <mxCell id="SM0f7E3UZA-LuhCornrs-105" value="apellido2" style="ellipse;whiteSpace=wrap;html=1;" vertex="1" parent="1">
          <mxGeometry x="750" y="620" width="60" height="40" as="geometry" />
        </mxCell>
        <mxCell id="SM0f7E3UZA-LuhCornrs-106" style="rounded=0;orthogonalLoop=1;jettySize=auto;html=1;entryX=1;entryY=0.75;entryDx=0;entryDy=0;endArrow=none;startFill=0;" edge="1" parent="1" source="SM0f7E3UZA-LuhCornrs-107" target="SM0f7E3UZA-LuhCornrs-60">
          <mxGeometry relative="1" as="geometry" />
        </mxCell>
        <mxCell id="SM0f7E3UZA-LuhCornrs-107" value="departamento" style="ellipse;whiteSpace=wrap;html=1;" vertex="1" parent="1">
          <mxGeometry x="725" y="686.25" width="92.5" height="40" as="geometry" />
        </mxCell>
        <mxCell id="SM0f7E3UZA-LuhCornrs-108" style="rounded=0;orthogonalLoop=1;jettySize=auto;html=1;entryX=1;entryY=1;entryDx=0;entryDy=0;endArrow=none;startFill=0;" edge="1" parent="1" source="SM0f7E3UZA-LuhCornrs-109" target="SM0f7E3UZA-LuhCornrs-60">
          <mxGeometry relative="1" as="geometry" />
        </mxCell>
        <mxCell id="SM0f7E3UZA-LuhCornrs-109" value="email" style="ellipse;whiteSpace=wrap;html=1;" vertex="1" parent="1">
          <mxGeometry x="740" y="755.75" width="60" height="40" as="geometry" />
        </mxCell>
        <mxCell id="SM0f7E3UZA-LuhCornrs-110" style="rounded=0;orthogonalLoop=1;jettySize=auto;html=1;entryX=0.75;entryY=1;entryDx=0;entryDy=0;endArrow=none;startFill=0;" edge="1" parent="1" source="SM0f7E3UZA-LuhCornrs-111" target="SM0f7E3UZA-LuhCornrs-60">
          <mxGeometry relative="1" as="geometry" />
        </mxCell>
        <mxCell id="SM0f7E3UZA-LuhCornrs-111" value="rango" style="ellipse;whiteSpace=wrap;html=1;" vertex="1" parent="1">
          <mxGeometry x="665" y="770" width="60" height="40" as="geometry" />
        </mxCell>
        <mxCell id="SM0f7E3UZA-LuhCornrs-116" value="SALON" style="whiteSpace=wrap;html=1;align=center;" vertex="1" parent="1">
          <mxGeometry x="170" y="850" width="100" height="40" as="geometry" />
        </mxCell>
        <mxCell id="SM0f7E3UZA-LuhCornrs-117" value="nAlumnos" style="ellipse;whiteSpace=wrap;html=1;" vertex="1" parent="1">
          <mxGeometry x="210" y="645" width="60" height="20" as="geometry" />
        </mxCell>
        <mxCell id="SM0f7E3UZA-LuhCornrs-121" value="descripción" style="ellipse;whiteSpace=wrap;html=1;" vertex="1" parent="1">
          <mxGeometry x="120" y="640" width="80" height="30" as="geometry" />
        </mxCell>
        <mxCell id="SM0f7E3UZA-LuhCornrs-122" style="rounded=0;orthogonalLoop=1;jettySize=auto;html=1;entryX=0;entryY=0;entryDx=0;entryDy=0;endArrow=none;startFill=0;exitX=0.5;exitY=1;exitDx=0;exitDy=0;" edge="1" parent="1" source="SM0f7E3UZA-LuhCornrs-121" target="SM0f7E3UZA-LuhCornrs-59">
          <mxGeometry relative="1" as="geometry">
            <mxPoint x="153" y="703" as="sourcePoint" />
            <mxPoint x="180" y="710" as="targetPoint" />
          </mxGeometry>
        </mxCell>
        <mxCell id="SM0f7E3UZA-LuhCornrs-124" style="rounded=0;orthogonalLoop=1;jettySize=auto;html=1;entryX=0.5;entryY=0;entryDx=0;entryDy=0;endArrow=none;startFill=0;exitX=0.5;exitY=1;exitDx=0;exitDy=0;" edge="1" parent="1" source="SM0f7E3UZA-LuhCornrs-117" target="SM0f7E3UZA-LuhCornrs-59">
          <mxGeometry relative="1" as="geometry">
            <mxPoint x="170" y="680" as="sourcePoint" />
            <mxPoint x="180" y="690" as="targetPoint" />
          </mxGeometry>
        </mxCell>
      </root>
    </mxGraphModel>
  </diagram>
</mxfile>
